<?xml version="1.0" encoding="iso-8859-1"?>
<!-- Generator: Adobe Illustrator 19.0.0, SVG Export Plug-In . SVG Version: 6.00 Build 0)  -->
<svg version="1.1" id="Layer_1" xmlns="http://www.w3.org/2000/svg" xmlns:xlink="http://www.w3.org/1999/xlink" x="0px" y="0px"
	 viewBox="0 0 512 512" style="enable-background:new 0 0 512 512;" xml:space="preserve">
<g>
	<g>
		<path d="M337.739,324.518c44.613-83.5,67.222-142.503,67.222-175.548C404.962,66.828,338.134,0,255.992,0
			S107.023,66.828,107.023,148.971c0,33.045,22.609,92.049,67.222,175.548c-50.89,12.188-106.6,41.666-102.641,92.925
			c9.741,126.095,359.055,126.057,368.793,0.004C444.339,366.395,389.229,336.847,337.739,324.518z M255.992,74.931
			c40.829,0,74.045,33.216,74.045,74.045c0,40.829-33.216,74.045-74.045,74.045c-40.829,0-74.045-33.216-74.045-74.045
			C181.947,108.147,215.163,74.931,255.992,74.931z M366.702,450.741c-55.986,28.58-164.519,29.043-221.408-0.001
			c-65.522-33.454-29.839-73.516,48.96-89.742c46.275,82.353,48.561,85.457,61.738,85.457c12.878,0,14.663-1.833,61.762-85.499
			C392.371,375.866,434.201,416.283,366.702,450.741z"/>
	</g>
</g>
<g>
</g>
<g>
</g>
<g>
</g>
<g>
</g>
<g>
</g>
<g>
</g>
<g>
</g>
<g>
</g>
<g>
</g>
<g>
</g>
<g>
</g>
<g>
</g>
<g>
</g>
<g>
</g>
<g>
</g>
</svg>
